<?xml version="1.0" encoding="iso-8859-1"?>
<!-- Generator: Adobe Illustrator 19.0.0, SVG Export Plug-In . SVG Version: 6.00 Build 0)  -->
<svg version="1.1" id="Layer_1" xmlns="http://www.w3.org/2000/svg" xmlns:xlink="http://www.w3.org/1999/xlink" x="0px" y="0px"
	 viewBox="0 0 334.134 334.134" style="enable-background:new 0 0 334.134 334.134;" xml:space="preserve">
<g id="XMLID_895_">
	<g id="XMLID_896_">
		<path id="XMLID_929_" style="fill:#682234;" d="M266.554,283.677c26.39-24.059,11.154-120.469,11.154-142.407
			C277.708,59.796,234.962,0,167.067,0S56.427,59.796,56.427,141.269c0,21.938-15.236,118.348,11.154,142.407
			C104.341,317.19,229.794,317.19,266.554,283.677z"/>
		<path id="XMLID_930_" style="fill:#581A2B;" d="M277.708,141.269C277.708,59.796,234.962,0,167.067,0v308.811
			c40.553,0,81.106-8.378,99.486-25.135C292.943,259.617,277.708,163.207,277.708,141.269z"/>
	</g>
	<g id="XMLID_931_">
		<path id="XMLID_932_" style="fill:#FFEB99;" d="M246.444,241.372c-6.043-3.641-12.69-6.43-19.844-8.196
			c-4.824-1.206-17.048-1.949-25.018-2.188c-8.189,8.543-20.609,13.994-34.515,13.994s-24.326-5.451-32.515-13.994
			c-7.969,0.239-22.194,0.982-27.018,2.188c-7.154,1.766-13.802,4.554-19.844,8.196c-23.228,13.95-37.605,40.482-37.605,70.913
			v21.849h233.963v-21.849C284.049,281.855,269.672,255.323,246.444,241.372z"/>
		<path id="XMLID_933_" style="fill:#FFE477;" d="M246.444,241.372c-6.043-3.641-12.69-6.429-19.844-8.196
			c-4.824-1.206-17.048-1.949-25.018-2.188c-8.189,8.543-20.608,13.994-34.515,13.994v89.152h116.982v-21.849
			C284.049,281.855,269.672,255.323,246.444,241.372z"/>
	</g>
	<g id="XMLID_934_">
		<g id="XMLID_935_">
			<path id="XMLID_936_" style="fill:#F3D8B6;" d="M192.356,176.138h-23.998h-1.121h-0.338h-1.121H141.78
				c0,42.803-19.646,58.804-28.776,64.673c0,0,45.615,67.027,52.775,69.941h2.581c7.16-2.914,52.775-69.941,52.775-69.941
				C212.002,234.942,192.356,218.941,192.356,176.138z"/>
		</g>
		<path id="XMLID_937_" style="fill:#EEC8A2;" d="M192.356,176.138h-23.998h-1.121h-0.169v134.614h1.29
			c7.16-2.914,52.775-69.941,52.775-69.941C212.002,234.942,192.356,218.941,192.356,176.138z"/>
	</g>
	<g id="XMLID_938_">
		<path id="XMLID_939_" style="fill:#F3DBC4;" d="M230.727,120.846c-0.043-0.002-0.08-0.005-0.124-0.007
			c-0.243-0.015-0.509-0.031-0.801-0.051c-0.046-0.003-0.097-0.006-0.144-0.01c-0.263-0.018-0.544-0.037-0.843-0.059
			c-0.061-0.004-0.119-0.009-0.182-0.013c-0.36-0.027-0.738-0.055-1.146-0.088c-0.01-0.001-0.022-0.002-0.032-0.003
			c-0.385-0.031-0.796-0.065-1.222-0.102c-0.083-0.007-0.165-0.015-0.249-0.022c-0.906-0.08-1.894-0.173-2.96-0.282
			c-0.086-0.009-0.174-0.018-0.261-0.027c-0.509-0.053-1.031-0.109-1.573-0.169c-0.036-0.004-0.07-0.007-0.107-0.012
			c-0.586-0.065-1.191-0.135-1.812-0.21c-0.077-0.009-0.155-0.019-0.232-0.028c-0.563-0.068-1.14-0.141-1.73-0.217
			c-0.08-0.01-0.158-0.02-0.239-0.03c-0.663-0.086-1.341-0.177-2.035-0.274c-0.035-0.005-0.07-0.01-0.105-0.015
			c-0.647-0.09-1.308-0.187-1.979-0.287c-0.108-0.016-0.215-0.032-0.323-0.048c-1.43-0.215-2.911-0.453-4.436-0.714
			c-0.118-0.021-0.236-0.041-0.354-0.061c-1.539-0.267-3.119-0.558-4.735-0.875c-0.107-0.021-0.215-0.043-0.323-0.064
			c-0.758-0.15-1.521-0.306-2.292-0.468c-0.06-0.013-0.12-0.025-0.18-0.038c-0.838-0.177-1.683-0.362-2.534-0.554
			c-0.078-0.018-0.157-0.036-0.235-0.054c-0.771-0.175-1.547-0.357-2.328-0.544c-0.114-0.027-0.227-0.054-0.341-0.082
			c-0.863-0.209-1.73-0.425-2.601-0.65c-0.011-0.002-0.021-0.005-0.032-0.008c-0.833-0.215-1.67-0.44-2.509-0.67
			c-0.136-0.038-0.273-0.075-0.409-0.113c-1.72-0.478-3.447-0.987-5.175-1.532c-0.14-0.044-0.279-0.088-0.419-0.133
			c-0.836-0.266-1.671-0.539-2.506-0.821c-0.023-0.008-0.045-0.015-0.068-0.022c-0.872-0.296-1.742-0.602-2.61-0.916
			c-0.127-0.046-0.253-0.093-0.379-0.139c-0.769-0.281-1.536-0.569-2.301-0.866c-0.106-0.041-0.213-0.082-0.319-0.123
			c-0.855-0.334-1.707-0.678-2.553-1.032c-0.085-0.036-0.169-0.072-0.254-0.108c-0.758-0.319-1.51-0.646-2.259-0.981
			c-0.141-0.063-0.283-0.125-0.424-0.189c-0.835-0.377-1.664-0.764-2.485-1.162c-10.905-5.293-20.503-12.44-26.124-22.086
			c-1.621-2.782-3.112-5.444-4.497-8.014c-6.833,14.833-21.688,32.746-33.944,40.883c0.871,21.986,4.359,41.811,8.409,49.287
			C120.454,182.737,140.632,205,167.068,205c26.431,0,46.607-22.262,55.652-38.957c3.796-7.008,7.1-24.866,8.217-45.184
			C230.867,120.854,230.805,120.85,230.727,120.846z"/>
		<path id="XMLID_940_" style="fill:#EDCEAE;" d="M230.727,120.846c-0.043-0.002-0.08-0.005-0.124-0.007
			c-0.243-0.015-0.509-0.031-0.801-0.051c-0.046-0.003-0.097-0.006-0.144-0.01c-0.263-0.018-0.544-0.037-0.843-0.059
			c-0.061-0.004-0.119-0.009-0.182-0.013c-0.36-0.027-0.738-0.055-1.146-0.088c-0.01-0.001-0.022-0.002-0.032-0.003
			c-0.385-0.031-0.796-0.065-1.222-0.102c-0.083-0.007-0.165-0.015-0.249-0.022c-0.906-0.08-1.894-0.173-2.96-0.282
			c-0.086-0.009-0.174-0.018-0.261-0.027c-0.509-0.053-1.031-0.109-1.573-0.169c-0.036-0.004-0.07-0.007-0.107-0.012
			c-0.586-0.065-1.191-0.135-1.812-0.21c-0.077-0.009-0.155-0.019-0.232-0.028c-0.563-0.068-1.14-0.141-1.73-0.217
			c-0.08-0.01-0.158-0.02-0.239-0.03c-0.663-0.086-1.341-0.177-2.035-0.274c-0.035-0.005-0.07-0.01-0.105-0.015
			c-0.647-0.09-1.308-0.187-1.979-0.287c-0.108-0.016-0.215-0.032-0.323-0.048c-1.43-0.215-2.911-0.453-4.436-0.714
			c-0.118-0.021-0.236-0.041-0.354-0.061c-1.539-0.267-3.119-0.558-4.735-0.875c-0.107-0.021-0.215-0.043-0.323-0.064
			c-0.758-0.15-1.521-0.306-2.292-0.468c-0.06-0.013-0.12-0.025-0.18-0.038c-0.838-0.177-1.683-0.362-2.534-0.554
			c-0.078-0.018-0.157-0.036-0.235-0.054c-0.771-0.175-1.547-0.357-2.328-0.544c-0.114-0.027-0.227-0.054-0.341-0.082
			c-0.863-0.209-1.73-0.425-2.601-0.65c-0.011-0.002-0.021-0.005-0.032-0.008c-0.833-0.215-1.67-0.44-2.509-0.67
			c-0.136-0.038-0.273-0.075-0.409-0.113c-1.72-0.478-3.447-0.987-5.175-1.532c-0.14-0.044-0.279-0.088-0.419-0.133
			c-0.836-0.266-1.671-0.539-2.506-0.821c-0.023-0.008-0.045-0.015-0.068-0.022c-0.872-0.296-1.742-0.602-2.61-0.916
			c-0.127-0.046-0.253-0.093-0.379-0.139c-0.769-0.281-1.536-0.569-2.301-0.866c-0.106-0.041-0.213-0.082-0.319-0.123
			c-0.855-0.334-1.707-0.678-2.553-1.032c-0.085-0.036-0.169-0.072-0.254-0.108c-0.758-0.319-1.51-0.646-2.259-0.981
			c-0.141-0.063-0.283-0.125-0.424-0.189c-0.835-0.377-1.664-0.764-2.485-1.162c-0.168-0.082-0.333-0.167-0.5-0.25v99.276
			c0,0,0.001,0,0.002,0c26.431,0,46.607-22.262,55.652-38.957c3.796-7.008,7.101-24.866,8.218-45.184
			C230.867,120.854,230.805,120.85,230.727,120.846z"/>
	</g>
</g>
<g>
</g>
<g>
</g>
<g>
</g>
<g>
</g>
<g>
</g>
<g>
</g>
<g>
</g>
<g>
</g>
<g>
</g>
<g>
</g>
<g>
</g>
<g>
</g>
<g>
</g>
<g>
</g>
<g>
</g>
</svg>
