<?xml version="1.0" encoding="iso-8859-1"?>
<!-- Generator: Adobe Illustrator 19.0.0, SVG Export Plug-In . SVG Version: 6.00 Build 0)  -->
<svg version="1.1" id="Layer_1" xmlns="http://www.w3.org/2000/svg" xmlns:xlink="http://www.w3.org/1999/xlink" x="0px" y="0px"
	 viewBox="0 0 358.884 358.884" style="enable-background:new 0 0 358.884 358.884;" xml:space="preserve">
<g id="XMLID_17_">
	<g id="XMLID_40_">
		<path id="XMLID_841_" style="fill:#FF628B;" d="M292.38,291.083c-1.056-3.393-2.309-6.683-3.749-9.853
			c-0.72-1.585-1.487-3.139-2.299-4.662c-2.031-3.806-4.345-7.412-6.921-10.783c-5.668-7.416-12.607-13.698-20.592-18.494
			c-0.755-0.455-1.52-0.897-2.294-1.325c-1.548-0.856-3.133-1.658-4.754-2.403c-0.81-0.372-1.63-0.73-2.457-1.073
			c-3.312-1.373-6.762-2.512-10.339-3.395c-0.744-0.186-1.494-0.361-2.249-0.525c-4.529-0.983-9.25-1.565-14.136-1.711
			c-0.814-0.024-1.633-0.037-2.457-0.037c0,0-8.921-9.046-9.932-17.485h-61.518c-1.011,8.439-9.932,17.485-9.932,17.485
			c-6.588,0-12.889,0.784-18.842,2.272c-7.154,1.766-13.802,4.554-19.844,8.196c-23.228,13.95-37.605,40.482-37.605,70.913v40.681
			h116.982h116.982v-40.681C296.423,308.695,295.019,299.566,292.38,291.083z"/>
		<path id="XMLID_842_" style="fill:#C85279;" d="M292.38,291.083c-1.056-3.394-2.309-6.684-3.749-9.853
			c-0.72-1.585-1.487-3.14-2.299-4.662c-2.031-3.807-4.345-7.412-6.921-10.783c-5.668-7.416-12.607-13.698-20.592-18.494
			c-0.755-0.456-1.52-0.897-2.294-1.325c-1.548-0.856-3.133-1.658-4.754-2.403c-0.81-0.372-1.63-0.73-2.457-1.073
			c-3.312-1.373-6.762-2.512-10.339-3.395c-0.744-0.186-1.494-0.361-2.249-0.525c-4.529-0.983-9.25-1.565-14.136-1.711
			c-0.814-0.024-1.633-0.037-2.457-0.037c0,0-8.921-9.046-9.932-17.485h-30.759v139.547h116.982v-40.681
			C296.423,308.695,295.019,299.566,292.38,291.083z"/>
	</g>
	<g id="XMLID_37_">
		<path id="XMLID_843_" style="fill:#682234;" d="M278.928,283.677c26.39-24.059,11.154-120.469,11.154-142.407
			C290.082,59.796,247.336,0,179.442,0S68.801,59.796,68.801,141.269c0,21.938-15.236,118.348,11.154,142.407
			C116.715,317.19,242.168,317.19,278.928,283.677z"/>
		<path id="XMLID_844_" style="fill:#581A2B;" d="M290.082,141.269C290.082,59.796,247.336,0,179.442,0v308.812
			c40.553,0,81.106-8.378,99.486-25.135C305.317,259.617,290.082,163.208,290.082,141.269z"/>
	</g>
	<g id="XMLID_34_">
		<path id="XMLID_845_" style="fill:#F3D8B6;" d="M222.63,263.333c0,0-14.458-18.417-14.458-81.376h-26.23h-5.002h-26.23
			c0,62.959-14.458,81.376-14.458,81.376c0,47.368,28.832,48.824,40.688,53.239h5.002
			C193.798,312.157,222.63,310.701,222.63,263.333z"/>
		<path id="XMLID_846_" style="fill:#EEC8A2;" d="M208.172,181.957h-26.23h-2.501v134.614h2.501
			c11.856-4.414,40.688-5.871,40.688-53.239C222.63,263.333,208.172,244.916,208.172,181.957z"/>
	</g>
	<g id="XMLID_18_">
		<path id="XMLID_847_" style="fill:#F3DBC4;" d="M180.347,120.925h-64.871c1.013,21.074,4.4,39.808,8.31,47.027
			c9.042,16.694,29.221,38.957,55.657,38.957c26.431,0,46.607-22.262,55.652-38.957c3.91-7.22,7.298-25.953,8.311-47.027
			C243.406,120.925,180.347,120.925,180.347,120.925z"/>
		<path id="XMLID_848_" style="fill:#EDCEAE;" d="M180.347,120.925h-0.905v85.984c0.001,0,0.001,0,0.002,0
			c26.431,0,46.607-22.262,55.652-38.956c3.91-7.219,7.298-25.953,8.311-47.027L180.347,120.925L180.347,120.925z"/>
	</g>
</g>
<g>
</g>
<g>
</g>
<g>
</g>
<g>
</g>
<g>
</g>
<g>
</g>
<g>
</g>
<g>
</g>
<g>
</g>
<g>
</g>
<g>
</g>
<g>
</g>
<g>
</g>
<g>
</g>
<g>
</g>
</svg>
