<?xml version="1.0" encoding="iso-8859-1"?>
<!-- Generator: Adobe Illustrator 19.0.0, SVG Export Plug-In . SVG Version: 6.00 Build 0)  -->
<svg version="1.1" id="Layer_1" xmlns="http://www.w3.org/2000/svg" xmlns:xlink="http://www.w3.org/1999/xlink" x="0px" y="0px"
	 viewBox="0 0 326.082 326.082" style="enable-background:new 0 0 326.082 326.082;" xml:space="preserve">
<g id="XMLID_1436_">
	<g id="XMLID_1437_">
		<g id="XMLID_1438_">
			<path id="XMLID_1439_" style="fill:#F3D8B6;" d="M246.23,229.939c-18.667-6.681-51.458-11.736-51.458-81.376h-29.23h-5.002
				h-29.23c0,69.64-32.791,74.695-51.458,81.376c0,47.368,68.832,48.824,80.688,53.239v1.537c0,0,0.922-0.188,2.501-0.68
				c1.579,0.492,2.501,0.68,2.501,0.68v-1.537C177.398,278.763,246.23,277.306,246.23,229.939z"/>
		</g>
		<path id="XMLID_1440_" style="fill:#EEC8A2;" d="M194.772,148.563h-29.23h-2.834v135.573c0.11-0.033,0.216-0.064,0.333-0.101
			c1.579,0.492,2.501,0.68,2.501,0.68v-1.537c11.856-4.414,80.688-5.871,80.688-53.239
			C227.563,223.258,194.772,218.203,194.772,148.563z"/>
	</g>
	<g id="XMLID_1441_">
		<g id="XMLID_1442_">
			<path id="XMLID_1443_" style="fill:#F3D8B6;" d="M283.023,285.401v40.681H43.059v-40.681c0-30.431,17.377-56.963,40.605-70.913
				c6.043-3.641,19.69-6.43,26.844-8.196c5.953-1.488,12.254-2.272,18.842-2.272l34.596,24.002l33.691-24.002
				c6.588,0,14.983,0.784,20.937,2.272c7.154,1.766,17.802,4.554,23.844,8.196C265.646,228.438,283.023,254.97,283.023,285.401z"/>
		</g>
		<g id="XMLID_1444_">
			<path id="XMLID_1445_" style="fill:#EEC8A2;" d="M242.418,214.487c-6.042-3.642-16.69-6.43-23.844-8.196
				c-5.953-1.488-14.348-2.272-20.937-2.272l-33.691,24.001l-1.239-0.859v98.919h120.315v-40.681
				C283.023,254.969,265.646,228.438,242.418,214.487z"/>
			<g id="XMLID_1446_">
				<path id="XMLID_1449_" style="fill:#367992;" d="M127.541,256.866c0,0-15.004-51.082-17.033-50.575
					c-7.154,1.766-20.802,4.554-26.844,8.196c-23.228,13.95-40.605,40.482-40.605,70.913v40.681h84.482V256.866z"/>
				<path id="XMLID_1452_" style="fill:#2F697E;" d="M242.418,214.487c-6.042-3.642-16.69-6.43-23.844-8.196
					c-2.243-0.561-20.033,52.653-20.033,52.653v67.136h84.482v-40.681C283.023,254.969,265.646,228.438,242.418,214.487z"/>
			</g>
		</g>
	</g>
	<g id="XMLID_1453_">
		<g id="XMLID_1454_">
			<path id="XMLID_1455_" style="fill:#F3DBC4;" d="M163.043,174.483c-27.454,0-48.409-23.119-57.799-40.456
				s-15.888-79.445,4.34-106.897c19.808-26.883,53.459-13.838,53.459-13.838s33.649-13.045,53.458,13.838
				c20.226,27.452,13.726,89.56,4.335,106.897C211.444,151.364,190.492,174.483,163.043,174.483z"/>
		</g>
		<path id="XMLID_1456_" style="fill:#EDCEAE;" d="M216.501,27.13c-19.81-26.884-53.458-13.838-53.458-13.838
			s-0.118-0.045-0.335-0.123v161.305c0.112,0.001,0.222,0.009,0.335,0.009c27.449,0,48.401-23.119,57.794-40.456
			C230.227,116.69,236.728,54.583,216.501,27.13z"/>
	</g>
	<g id="XMLID_1457_">
		<g id="XMLID_1458_">
			<path id="XMLID_1459_" style="fill:#D7734A;" d="M220.691,22.976c-2.16,0.019-25.469-13.121-41.382-16.355
				c-18.766-3.814-18.777-0.529-26.02,1.516c-29.41-9.014-52.972-15.012-51.927,7.003c1.759,37.07-9.345,65.989-4.863,78.938
				s8.466,23.407,8.466,23.407s0.996,3.565,2.988-16.854s-4.579-42.372,11.137-40.379c15.716,1.992,10.785,14.805,44.436,14.805
				c33.391,0,28.719-12.813,44.436-14.805c15.716-1.992,9.145,19.96,11.137,40.379s2.988,16.854,2.988,16.854
				s3.984-10.458,8.466-23.407C235.037,81.129,240.043,22.806,220.691,22.976z"/>
		</g>
		<path id="XMLID_1460_" style="fill:#D35D3B;" d="M220.692,22.976c-2.16,0.019-25.469-13.121-41.382-16.355
			c-8.707-1.77-13.374-2.01-16.602-1.556v69.982c0.278,0.001,0.536,0.01,0.819,0.01c33.391,0,28.719-12.813,44.436-14.805
			c15.716-1.992,9.145,19.96,11.137,40.379c1.992,20.419,2.988,16.854,2.988,16.854s3.984-10.458,8.467-23.407
			S240.044,22.806,220.692,22.976z"/>
	</g>
	<g id="XMLID_1461_">
		<g id="XMLID_1462_">
			<path id="XMLID_1465_" style="fill:#DD8B5D;" d="M189.2,132.738c-3.596-1.233-3.488,0.654-12.686-3.491
				c-9.039-4.073-9.71-12.604-13.473-11.41c-3.763-1.194-4.434,7.338-13.473,11.41c-9.199,4.145-9.091,2.257-12.686,3.491
				c-1.744,0.599-5.573,5.148,3.051,7.911s16.65,1.655,19.703-2.968c1.998-3.026,2.962-6.895,3.406-10.408
				c0.443,3.514,1.408,7.383,3.406,10.408c3.053,4.623,11.079,5.732,19.703,2.968C194.773,137.886,190.945,133.337,189.2,132.738z"
				/>
		</g>
		<path id="XMLID_1466_" style="fill:#D87348;" d="M189.2,132.738c-3.596-1.233-3.488,0.654-12.686-3.491
			c-9.039-4.073-9.71-12.604-13.473-11.411c-0.114-0.036-0.087,10.127,0,9.436c0.443,3.513,1.408,7.383,3.406,10.408
			c3.053,4.624,11.079,5.731,19.703,2.968C194.773,137.886,190.944,133.337,189.2,132.738z"/>
	</g>
	<g id="XMLID_1467_">
		<path id="XMLID_1468_" style="fill:#DD8B5D;" d="M214.615,140.465c-16.801,22.803-51.751,12.75-51.751,12.75
			s-34.196,11.303-50.999-11.5c-7.173-9.735-6.786-7.282-2.071,1.424c7.973,14.719,29.764,34.348,53.072,34.348
			c23.304,0,45.094-19.629,53.068-34.348C220.65,134.432,221.789,130.728,214.615,140.465z"/>
		<path id="XMLID_1469_" style="fill:#D87348;" d="M214.615,140.464c-16.801,22.803-51.751,12.75-51.751,12.75
			s-0.063,0.02-0.155,0.049v24.219c0.053,0,0.105,0.004,0.158,0.004c23.305,0,45.094-19.629,53.068-34.348
			C220.65,134.432,221.789,130.728,214.615,140.464z"/>
	</g>
	<g id="XMLID_1470_">
		<path id="XMLID_1471_" style="fill:#FFEB99;" d="M91.213,301.984v24.097h143.024v-24.097h43.13v-15.468
			c0-29.596-16.496-55.4-38.545-68.968c-3.73-2.303-10.507-4.662-16.662-6.505c-7.662,23.723-31.226,41.003-59.118,41.003
			s-51.456-17.28-59.118-41.003c-6.155,1.844-12.932,4.203-16.662,6.505c-22.049,13.568-38.545,39.372-38.545,68.968v15.468
			L91.213,301.984L91.213,301.984z"/>
		<path id="XMLID_1472_" style="fill:#FFE477;" d="M238.821,217.548c-3.729-2.303-10.507-4.662-16.662-6.505
			c-7.662,23.723-31.226,41.003-59.118,41.003c-0.112,0-0.222-0.006-0.333-0.007v74.042h71.529v-24.097h43.13v-15.467
			C277.367,256.92,260.871,231.116,238.821,217.548z"/>
	</g>
	<g id="XMLID_1473_">
		
			<ellipse id="XMLID_40_" transform="matrix(0.3543 -0.9351 0.9351 0.3543 45.5746 279.5468)" style="fill:#EDCEAE;" cx="225.216" cy="106.771" rx="17.187" ry="10.048"/>
		
			<ellipse id="XMLID_39_" transform="matrix(0.3543 0.9351 -0.9351 0.3543 164.9774 -25.3738)" style="fill:#F3DBC4;" cx="100.863" cy="106.778" rx="17.187" ry="10.048"/>
	</g>
	<g id="XMLID_1474_">
		<path id="XMLID_1477_" style="fill:#367992;" d="M127.541,256.866c0,0-15.004-51.082-17.033-50.575
			c-7.154,1.766-20.802,4.554-26.844,8.196c-23.228,13.95-40.605,40.482-40.605,70.913v40.681h84.482V256.866z"/>
		<path id="XMLID_1480_" style="fill:#2F697E;" d="M242.418,214.487c-6.042-3.642-16.69-6.43-23.844-8.196
			c-2.243-0.561-20.033,52.653-20.033,52.653v67.136h84.482v-40.681C283.023,254.969,265.646,228.438,242.418,214.487z"/>
	</g>
</g>
<g>
</g>
<g>
</g>
<g>
</g>
<g>
</g>
<g>
</g>
<g>
</g>
<g>
</g>
<g>
</g>
<g>
</g>
<g>
</g>
<g>
</g>
<g>
</g>
<g>
</g>
<g>
</g>
<g>
</g>
</svg>
