<?xml version="1.0" encoding="iso-8859-1"?>
<!-- Generator: Adobe Illustrator 19.0.0, SVG Export Plug-In . SVG Version: 6.00 Build 0)  -->
<svg version="1.1" id="Layer_1" xmlns="http://www.w3.org/2000/svg" xmlns:xlink="http://www.w3.org/1999/xlink" x="0px" y="0px"
	 viewBox="0 0 341.549 341.549" style="enable-background:new 0 0 341.549 341.549;" xml:space="preserve">
<g id="XMLID_2_">
	<g id="XMLID_57_">
		<g id="XMLID_1252_">
			<path id="XMLID_1253_" style="fill:#F3D8B6;" d="M253.962,245.996c-18.667-6.681-51.458-11.736-51.458-81.376h-29.23h-5.002
				h-29.23c0,69.64-32.791,74.695-51.458,81.376c0,47.368,68.832,48.824,80.688,53.239v1.537c0,0,0.922-0.188,2.501-0.68
				c1.579,0.492,2.501,0.68,2.501,0.68v-1.537C185.129,294.82,253.962,293.363,253.962,245.996z"/>
		</g>
		<path id="XMLID_1254_" style="fill:#EEC8A2;" d="M202.504,164.62h-29.23h-2.501v135.471c1.579,0.492,2.501,0.68,2.501,0.68v-1.537
			c11.856-4.415,80.688-5.871,80.688-53.239C235.295,239.315,202.504,234.26,202.504,164.62z"/>
	</g>
	<g id="XMLID_53_">
		<g id="XMLID_1255_">
			<path id="XMLID_1256_" style="fill:#F3DBC4;" d="M170.775,186.782c-27.454,0-48.409-23.119-57.799-40.456
				s-15.888-77.445,4.34-104.897c19.808-26.883,53.459-23.838,53.459-23.838s33.649-3.045,53.458,23.838
				c20.226,27.452,13.726,87.56,4.335,104.897C219.176,163.663,198.223,186.782,170.775,186.782z"/>
		</g>
		<path id="XMLID_1257_" style="fill:#EDCEAE;" d="M224.233,41.429c-19.81-26.883-53.458-23.838-53.458-23.838h-0.002v169.191
			c0.001,0,0.001,0,0.002,0c27.449,0,48.401-23.119,57.794-40.456C237.959,128.989,244.459,68.882,224.233,41.429z"/>
	</g>
	<g id="XMLID_49_">
		<g id="XMLID_1258_">
			<path id="XMLID_1259_" style="fill:#F3D8B6;" d="M290.755,300.867v40.681H50.791v-40.681c0-30.431,17.377-56.963,40.605-70.913
				c6.043-3.641,19.69-6.43,26.844-8.196c5.953-1.488,12.254-2.272,18.842-2.272l34.596,24.002l33.691-24.002
				c6.588,0,14.983,0.784,20.937,2.272c7.154,1.766,17.802,4.554,23.844,8.196C273.378,243.904,290.755,270.436,290.755,300.867z"/>
		</g>
		<path id="XMLID_1260_" style="fill:#EEC8A2;" d="M250.15,229.954c-6.043-3.641-16.69-6.429-23.844-8.195
			c-5.953-1.488-14.348-2.272-20.937-2.272l-33.691,24.002l-0.906-0.628v98.688h119.982v-40.681
			C290.755,270.436,273.378,243.904,250.15,229.954z"/>
	</g>
	<g id="XMLID_42_">
		<path id="XMLID_1263_" style="fill:#66A299;" d="M95.106,316.771v24.777h150.667v-24.777h45.435v-15.904
			c0-30.431-17.377-56.963-40.605-70.914c-3.929-2.368-11.069-4.793-17.552-6.689c-8.072,24.392-32.894,42.159-62.277,42.159
			s-54.205-17.768-62.277-42.159c-6.484,1.896-13.623,4.321-17.552,6.689c-23.228,13.951-40.605,40.482-40.605,70.914v15.904H95.106
			z"/>
		<path id="XMLID_1266_" style="fill:#5A9291;" d="M250.603,229.954c-3.929-2.368-11.069-4.793-17.552-6.689
			c-8.072,24.392-32.894,42.159-62.277,42.159v76.124h75v-24.777h45.435v-15.904C291.207,270.436,273.83,243.904,250.603,229.954z"
			/>
	</g>
	<g id="XMLID_38_">
		<g id="XMLID_1267_">
			<path id="XMLID_1268_" style="fill:#D7734A;" d="M237.225,109.439c-0.725,14.745-22.425,29.324-29.599,39.061
				c-16.801,22.803-36.854,3.24-36.854,3.24s-20.051,19.563-36.854-3.24c-7.173-9.735-28.871-24.311-29.596-39.054
				c-1.19,20.863,11.665,42.273,16.381,50.979c7.973,14.719,26.764,34.348,50.072,34.348c23.304,0,42.094-19.629,50.068-34.348
				C225.559,151.717,238.415,130.304,237.225,109.439z"/>
		</g>
		<path id="XMLID_1269_" style="fill:#D35D3B;" d="M237.225,109.439c-0.725,14.744-22.425,29.324-29.599,39.061
			c-16.775,22.767-36.79,3.302-36.853,3.241v43.031h0.001c23.304,0,42.094-19.628,50.068-34.348
			C225.559,151.717,238.415,130.304,237.225,109.439z"/>
	</g>
	<g id="XMLID_34_">
		<g id="XMLID_1270_">
			<path id="XMLID_37_" style="fill:#D7734A;" d="M206.112,25.918c0,0-24.427-32.813-39.707-24.598
				c-39.045,20.991-44.219,18.365-52.979,21.408c-21.241,7.378-21.798,5.405-19.122,21.776c8.879,54.319-0.557,79.337,15.961,59.147
				s22.025-15.423,64.073-20.012s15.256-23.363,37.28-8.18s24.919,42.732,28.589,42.732c3.671,0,11.84-52.59,6.283-68.911
				C234.628,14.439,206.112,25.918,206.112,25.918z"/>
		</g>
		<path id="XMLID_1271_" style="fill:#D35D3B;" d="M246.49,49.281c-11.862-34.842-40.378-23.362-40.378-23.362
			S185.923-1.197,170.773,0.045v83.97c1.16-0.118,2.344-0.242,3.564-0.375c42.047-4.588,15.256-23.363,37.28-8.18
			c22.025,15.184,24.919,42.732,28.589,42.732S252.047,65.603,246.49,49.281z"/>
	</g>
	<g id="XMLID_3_">
		
			<ellipse id="XMLID_33_" transform="matrix(0.3543 -0.9351 0.9351 0.3543 39.066 294.7166)" style="fill:#EDCEAE;" cx="232.947" cy="119.069" rx="17.187" ry="10.048"/>
		
			<ellipse id="XMLID_32_" transform="matrix(0.3543 0.9351 -0.9351 0.3543 181.4716 -24.6634)" style="fill:#F3DBC4;" cx="108.595" cy="119.078" rx="17.187" ry="10.048"/>
	</g>
</g>
<g>
</g>
<g>
</g>
<g>
</g>
<g>
</g>
<g>
</g>
<g>
</g>
<g>
</g>
<g>
</g>
<g>
</g>
<g>
</g>
<g>
</g>
<g>
</g>
<g>
</g>
<g>
</g>
<g>
</g>
</svg>
