<?xml version="1.0" encoding="iso-8859-1"?>
<!-- Generator: Adobe Illustrator 19.0.0, SVG Export Plug-In . SVG Version: 6.00 Build 0)  -->
<svg version="1.1" id="Layer_1" xmlns="http://www.w3.org/2000/svg" xmlns:xlink="http://www.w3.org/1999/xlink" x="0px" y="0px"
	 viewBox="0 0 342.106 342.106" style="enable-background:new 0 0 342.106 342.106;" xml:space="preserve">
<g id="XMLID_15_">
	<g id="XMLID_45_">
		<path id="XMLID_899_" style="fill:#545465;" d="M270.539,283.677c26.39-24.059,11.154-120.469,11.154-142.407
			C281.693,59.796,238.947,0,171.053,0S60.413,59.796,60.413,141.269c0,21.938-15.236,118.348,11.154,142.407
			C108.326,317.19,233.78,317.19,270.539,283.677z"/>
		<path id="XMLID_902_" style="fill:#494857;" d="M281.693,141.269C281.693,59.796,238.947,0,171.053,0v308.812
			c40.553,0,81.106-8.378,99.486-25.135C296.929,259.617,281.693,163.208,281.693,141.269z"/>
	</g>
	<g id="XMLID_42_">
		<path id="XMLID_44_" style="fill:#F3D8B6;" d="M288.04,320.255l-0.015,21.85l-233.96-0.159l0.015-21.85
			c0.002-3.12,0.154-6.19,0.456-9.22c1.48-15.109,6.59-28.966,14.567-40.41c6.006-8.626,13.661-15.881,22.625-21.255
			c6.053-3.636,12.694-6.421,19.855-8.186c4.821-1.197,19.051-1.937,27.011-2.162c8.184,8.546,18.601,14.003,32.511,14.012
			c13.91,0.009,26.334-5.432,34.52-13.967c7.97,0.235,20.199,0.994,25.019,2.197c7.159,1.775,13.797,4.569,19.845,8.213
			C273.699,263.286,288.061,289.825,288.04,320.255z"/>
		<path id="XMLID_903_" style="fill:#EEC8A2;" d="M250.488,249.32c-6.047-3.644-12.686-6.439-19.844-8.214
			c-4.819-1.203-17.049-1.961-25.019-2.197c-8.186,8.534-20.61,13.976-34.52,13.967c-0.018,0-0.035-0.001-0.053-0.001v89.152
			l116.973,0.079l0.015-21.85C288.061,289.825,273.699,263.286,250.488,249.32z"/>
	</g>
	<g id="XMLID_38_">
		<g id="XMLID_904_">
			<path id="XMLID_905_" style="fill:#F3D8B6;" d="M199.382,184.03h-26.884h-1.256h-0.379h-1.256h-26.884
				c0,74.552-36.43,67.808-36.43,67.808c0,47.368,51.162,62.392,63.313,66.806v1.537c0,0,0.533-0.11,1.446-0.359
				c0.912,0.249,1.446,0.359,1.446,0.359v-1.537c12.151-4.414,63.313-19.439,63.313-66.806
				C235.812,251.838,199.382,258.582,199.382,184.03z"/>
		</g>
		<path id="XMLID_906_" style="fill:#EEC8A2;" d="M199.382,184.03h-26.884h-1.256h-0.189v135.792
			c0.913,0.249,1.446,0.359,1.446,0.359v-1.537c12.151-4.414,63.313-19.438,63.313-66.806
			C235.812,251.838,199.382,258.582,199.382,184.03z"/>
	</g>
	<g id="XMLID_35_">
		<path id="XMLID_907_" style="fill:#F3DBC4;" d="M171.958,120.925h-65.116c0.521,23.832,4.216,46.017,8.555,54.027
			c9.042,16.694,29.22,38.957,55.657,38.957c26.431,0,46.607-22.262,55.652-38.957c4.339-8.011,8.035-30.196,8.556-54.027
			C235.262,120.925,171.958,120.925,171.958,120.925z"/>
		<path id="XMLID_908_" style="fill:#EDCEAE;" d="M171.958,120.925h-0.905v92.984c0,0,0.001,0,0.002,0
			c26.431,0,46.607-22.262,55.652-38.957c4.339-8.011,8.035-30.196,8.556-54.027C235.263,120.925,171.958,120.925,171.958,120.925z"
			/>
	</g>
	<path id="XMLID_34_" style="fill:#C85279;" d="M228.514,129.883c-10.839,18.773-30.153-14.681-8.476-14.681
		c-21.677,0-2.362-33.454,8.476-14.681c-10.839-18.773,27.791-18.773,16.953,0c10.839-18.773,30.153,14.681,8.476,14.681
		c21.677,0,2.362,33.454-8.476,14.681C256.305,148.656,217.676,148.656,228.514,129.883z"/>
	<g id="XMLID_16_">
		<path id="XMLID_909_" style="fill:#682234;" d="M287.883,320.186c0-0.42,0-0.94-0.01-1.56c-0.12-7.31-1.07-14.37-2.77-21.08
			c-2.49-9.84-6.6-18.91-12.08-26.82l-27.226,25.666c-7.183-8.264-17.763-13.496-29.572-13.496h-6.146
			c-21.637,0-38.995,17.551-38.995,39.188c0-21.637-17.722-39.188-39.358-39.188h-6.146c-11.717,0-22.225,5.15-29.405,13.303
			l-27.248-25.732c-7.978,11.445-13.087,25.301-14.567,40.41c-0.093,4.27-0.135,7.58-0.136,9.23l32.229,0.022
			c-0.031,0.644-0.049,1.292-0.049,1.945v19.958h84.5h84.5v-19.958c0-0.633-0.018-1.262-0.048-1.887h32.527V320.186z"/>
		<path id="XMLID_910_" style="fill:#581A2B;" d="M287.883,320.186c0-0.42,0-0.94-0.01-1.56c-0.12-7.31-1.07-14.37-2.77-21.08
			c-2.49-9.84-6.6-18.91-12.08-26.82l-27.226,25.666c-7.183-8.264-17.763-13.496-29.572-13.496h-6.146
			c-21.637,0-38.995,17.551-38.995,39.188c0-0.41-0.019-0.816-0.031-1.223v21.171h84.35v-19.958c0-0.633-0.018-1.262-0.048-1.887
			h32.528V320.186z"/>
	</g>
</g>
<g>
</g>
<g>
</g>
<g>
</g>
<g>
</g>
<g>
</g>
<g>
</g>
<g>
</g>
<g>
</g>
<g>
</g>
<g>
</g>
<g>
</g>
<g>
</g>
<g>
</g>
<g>
</g>
<g>
</g>
</svg>
