<?xml version="1.0" encoding="iso-8859-1"?>
<!-- Generator: Adobe Illustrator 19.0.0, SVG Export Plug-In . SVG Version: 6.00 Build 0)  -->
<svg version="1.1" id="Layer_1" xmlns="http://www.w3.org/2000/svg" xmlns:xlink="http://www.w3.org/1999/xlink" x="0px" y="0px"
	 viewBox="0 0 324.386 324.386" style="enable-background:new 0 0 324.386 324.386;" xml:space="preserve">
<g id="XMLID_1_">
	<g id="XMLID_70_">
		<g id="XMLID_1272_">
			<path id="XMLID_1273_" style="fill:#F3D8B6;" d="M245.381,228.832c-18.667-6.681-51.458-11.736-51.458-81.376h-29.23h-5.002
				h-29.23c0,69.64-32.791,74.695-51.458,81.376c0,47.368,68.832,48.824,80.688,53.239v1.537c0,0,0.922-0.188,2.501-0.68
				c1.579,0.492,2.501,0.68,2.501,0.68v-1.537C176.549,277.657,245.381,276.2,245.381,228.832z"/>
		</g>
		<path id="XMLID_1274_" style="fill:#EEC8A2;" d="M193.923,147.457h-29.23h-2.501v135.471l0,0c1.579,0.492,2.501,0.68,2.501,0.68
			v-1.537c11.856-4.415,80.688-5.871,80.688-53.239C226.714,222.152,193.923,217.097,193.923,147.457z"/>
	</g>
	<g id="XMLID_66_">
		<g id="XMLID_1275_">
			<path id="XMLID_1276_" style="fill:#F3DBC4;" d="M162.194,169.619c-27.454,0-48.409-23.119-57.799-40.456
				s-15.888-79.445,4.34-106.897c19.808-26.883,53.459-13.838,53.459-13.838s33.649-13.045,53.458,13.838
				c20.226,27.452,13.726,89.56,4.335,106.897C210.595,146.5,189.643,169.619,162.194,169.619z"/>
		</g>
		<path id="XMLID_1277_" style="fill:#EDCEAE;" d="M215.653,22.266c-19.81-26.883-53.458-13.838-53.458-13.838h-0.002V169.62
			c0,0,0.001,0,0.002,0c27.449,0,48.401-23.119,57.794-40.456C229.378,111.826,235.879,49.719,215.653,22.266z"/>
	</g>
	<g id="XMLID_58_">
		<g id="XMLID_1278_">
			<path id="XMLID_1281_" style="fill:#545465;" d="M218.585,18.112c-2.16,0.019-25.469-13.121-41.382-16.355
				c-18.766-3.814-18.777-0.529-26.02,1.516C134.348-9.076,92.678,27.924,92.678,35.568c0,37.112-2.768,40.697,1.715,53.646
				s8.466,23.407,8.466,23.407s2.988,9.819,2.988-10.697c0-55.843,2.805-3.574,100.009-46.537
				c19.157-8.467,9.145,19.96,11.137,40.379s2.988,16.854,2.988,16.854s3.984-10.458,8.466-23.407
				C232.931,76.265,237.937,17.942,218.585,18.112z"/>
		</g>
		<path id="XMLID_1284_" style="fill:#494857;" d="M218.585,18.112c-2.16,0.019-25.469-13.121-41.382-16.355
			c-7.379-1.5-11.852-1.899-15.011-1.711v70.421c11.881-2.753,26.251-7.383,43.664-15.079c19.157-8.467,9.145,19.96,11.137,40.379
			s2.988,16.854,2.988,16.854s3.984-10.458,8.466-23.407S237.937,17.942,218.585,18.112z"/>
	</g>
	<g id="XMLID_54_">
		<g id="XMLID_1285_">
			<path id="XMLID_1286_" style="fill:#F3D8B6;" d="M282.174,283.704v40.681H42.211v-40.681c0-30.431,17.377-56.963,40.605-70.913
				c6.043-3.641,19.69-6.43,26.844-8.196c5.953-1.488,12.254-2.272,18.842-2.272l34.596,24.002l33.691-24.002
				c6.588,0,14.983,0.784,20.937,2.272c7.154,1.766,17.802,4.554,23.844,8.196C264.797,226.741,282.174,253.273,282.174,283.704z"/>
		</g>
		<path id="XMLID_1287_" style="fill:#EEC8A2;" d="M241.569,212.791c-6.042-3.641-16.69-6.429-23.844-8.195
			c-5.953-1.488-14.348-2.272-20.937-2.272l-33.691,24.002l-0.906-0.628v98.688h119.982v-40.681
			C282.174,253.273,264.797,226.741,241.569,212.791z"/>
	</g>
	<g id="XMLID_51_">
		
			<ellipse id="XMLID_53_" transform="matrix(0.3543 -0.9351 0.9351 0.3543 49.5754 275.6113)" style="fill:#EDCEAE;" cx="224.366" cy="101.907" rx="17.187" ry="10.048"/>
		
			<ellipse id="XMLID_52_" transform="matrix(0.3543 0.9351 -0.9351 0.3543 159.8796 -27.721)" style="fill:#F3DBC4;" cx="100.013" cy="101.913" rx="17.187" ry="10.048"/>
	</g>
	<g id="XMLID_47_">
		<g id="XMLID_1288_">
			<rect id="XMLID_50_" x="105.138" y="223.924" style="fill:#B7CAE9;" width="114.108" height="100.325"/>
		</g>
		<rect id="XMLID_1289_" x="162.192" y="223.924" style="fill:#96B3D4;" width="57.054" height="100.325"/>
	</g>
	<g id="XMLID_39_">
		<g id="XMLID_1290_">
			<path id="XMLID_1293_" style="fill:#545465;" d="M190.375,135.215c-3.874-1.106-3.758,0.586-13.668-3.13
				c-9.738-3.652-10.461-11.301-14.515-10.231c-4.054-1.07-4.777,6.579-14.515,10.231c-9.91,3.716-9.794,2.024-13.668,3.13
				c-1.879,0.537-6.004,4.616,3.287,7.093c9.291,2.478,17.938,1.484,21.227-2.662c2.153-2.713,3.192-6.182,3.669-9.333
				c0.478,3.15,1.517,6.62,3.669,9.333c3.289,4.146,11.936,5.139,21.227,2.662S192.254,135.752,190.375,135.215z"/>
		</g>
		<path id="XMLID_1296_" style="fill:#494857;" d="M190.375,135.215c-3.874-1.106-3.758,0.586-13.668-3.13
			c-9.738-3.652-10.461-11.301-14.515-10.231l0,0v8.461v-0.001c0.478,3.15,1.517,6.62,3.669,9.333
			c3.289,4.146,11.936,5.139,21.227,2.662S192.254,135.752,190.375,135.215z"/>
	</g>
	<g id="XMLID_3_">
		<g id="XMLID_1297_">
			<path id="XMLID_1300_" style="fill:#66A299;" d="M242.022,212.633c-2.201-1.327-5.416-2.538-8.954-3.63
				c-3.631-1.308-7.562-2.436-11.147-3.38c-2.841,30.494-28.492,54.367-59.728,54.367c-31.096,0-56.665-23.657-59.697-53.955
				c-7.077,1.69-15.672,3.91-20.133,6.599c-23.228,13.951-40.605,40.482-40.605,70.914v40.681h120.887h119.076h0.906v-40.681
				C282.627,253.115,265.25,226.583,242.022,212.633z"/>
		</g>
		<path id="XMLID_1303_" style="fill:#5A9291;" d="M242.022,212.633c-2.201-1.327-5.416-2.538-8.954-3.631
			c-3.631-1.308-7.562-2.436-11.147-3.38c-2.841,30.494-28.492,54.366-59.728,54.366l0,0v64.238h0.453h119.076h0.906v-40.681
			C282.627,253.115,265.25,226.583,242.022,212.633z"/>
	</g>
</g>
<g>
</g>
<g>
</g>
<g>
</g>
<g>
</g>
<g>
</g>
<g>
</g>
<g>
</g>
<g>
</g>
<g>
</g>
<g>
</g>
<g>
</g>
<g>
</g>
<g>
</g>
<g>
</g>
<g>
</g>
</svg>
