<?xml version="1.0" standalone="no"?>
<!DOCTYPE svg PUBLIC "-//W3C//DTD SVG 20010904//EN"
 "http://www.w3.org/TR/2001/REC-SVG-20010904/DTD/svg10.dtd">
<svg version="1.0" xmlns="http://www.w3.org/2000/svg"
 width="700.000000pt" height="700.000000pt" viewBox="0 0 700.000000 700.000000"
 preserveAspectRatio="xMidYMid meet">
<metadata>
Created by potrace 1.11, written by Peter Selinger 2001-2013
</metadata>
<g transform="translate(0.000000,700.000000) scale(0.100000,-0.100000)"
fill="#000000" stroke="none">
<path d="M3278 6996 c-1 -2 -41 -6 -88 -10 -82 -6 -120 -11 -185 -21 -16 -3
-50 -8 -75 -11 -198 -26 -570 -131 -757 -215 -24 -10 -45 -19 -48 -19 -15 0
-302 -146 -385 -195 -168 -101 -376 -248 -478 -338 -110 -97 -147 -132 -252
-237 -145 -145 -212 -222 -323 -368 -222 -294 -410 -654 -520 -997 -26 -81
-83 -297 -92 -345 -3 -15 -11 -62 -20 -106 -8 -43 -18 -106 -21 -139 -4 -33
-8 -62 -9 -65 -11 -18 -20 -229 -20 -430 1 -205 7 -330 20 -412 2 -13 6 -45
10 -73 9 -76 16 -116 25 -160 5 -22 11 -53 14 -70 28 -153 116 -447 171 -570
7 -16 23 -53 34 -82 82 -209 265 -521 434 -743 134 -175 338 -392 483 -516 32
-27 69 -59 82 -71 42 -38 202 -157 297 -220 303 -201 621 -348 984 -453 130
-38 347 -82 466 -95 28 -3 55 -8 62 -10 77 -26 656 -26 833 -1 19 3 55 8 80
11 75 10 113 16 155 25 22 5 56 12 75 15 19 3 94 21 165 40 479 125 914 344
1310 662 123 98 379 348 475 463 34 41 70 84 79 95 41 50 172 238 224 323 187
303 356 710 421 1012 3 14 12 56 21 93 16 74 19 91 34 187 18 119 23 154 31
245 9 96 5 583 -5 650 -16 110 -18 130 -17 136 0 3 -6 44 -14 90 -9 46 -18 98
-20 114 -11 65 -74 305 -104 395 -103 310 -248 607 -423 865 -206 304 -418
531 -772 823 -167 139 -516 343 -770 453 -191 81 -517 183 -685 213 -120 21
-225 37 -347 51 -44 6 -549 15 -555 11z m489 -630 c115 -13 149 -18 228 -31
137 -23 406 -92 438 -112 5 -3 -86 -100 -201 -217 -323 -323 -404 -422 -485
-581 -36 -71 -92 -225 -101 -280 -3 -16 -8 -39 -10 -51 -37 -182 -18 -418 50
-623 37 -109 126 -272 195 -357 71 -86 237 -239 298 -274 14 -8 28 -17 31 -20
9 -11 165 -87 220 -108 256 -101 584 -103 850 -7 101 36 148 58 235 109 127
76 195 135 449 388 131 131 240 237 241 236 2 -2 17 -48 35 -103 53 -168 91
-350 120 -585 9 -76 6 -506 -4 -570 -3 -19 -8 -57 -11 -85 -4 -27 -8 -57 -10
-65 -2 -8 -7 -34 -10 -57 -15 -110 -114 -462 -137 -488 -4 -5 -8 -15 -8 -22 0
-24 -102 -245 -167 -361 -335 -601 -864 -1056 -1508 -1297 -91 -34 -302 -98
-363 -110 -60 -12 -240 -44 -277 -49 -183 -26 -529 -26 -725 -1 -171 23 -452
86 -558 126 -25 9 -16 19 240 277 146 147 284 293 306 324 136 186 213 374
247 603 8 52 8 226 0 290 -49 409 -317 789 -684 970 -131 65 -275 109 -395
122 -152 16 -337 6 -449 -23 -34 -9 -69 -17 -77 -19 -29 -6 -146 -53 -200 -80
-109 -55 -207 -130 -320 -245 -99 -100 -170 -166 -349 -325 -19 -16 -53 -47
-75 -67 -22 -20 -44 -34 -47 -30 -26 29 -110 365 -124 496 -4 31 -8 67 -11 79
-8 44 -18 225 -18 352 -1 180 12 349 34 470 6 28 12 68 16 90 7 49 57 253 77
315 71 218 141 378 245 560 73 127 209 327 252 370 3 3 34 38 70 79 437 501
1033 842 1660 950 161 28 173 30 285 37 55 4 101 7 102 9 6 4 346 -3 400 -9z"/>
</g>
</svg>
