<?xml version="1.0" encoding="utf-8"?>
<!-- Generator: Adobe Illustrator 19.0.0, SVG Export Plug-In . SVG Version: 6.00 Build 0)  -->
<svg version="1.1" xmlns="http://www.w3.org/2000/svg" xmlns:xlink="http://www.w3.org/1999/xlink" x="0px" y="0px"
	 viewBox="0 0 44.9 44.9" style="enable-background:new 0 0 44.9 44.9;" xml:space="preserve">
<g id="Layer_1">
	<path id="XMLID_858_" class="st0" d="M38.3,6.6c-8.8-8.8-23-8.8-31.7,0C2.3,10.8,0,16.4,0,22.4c0,6,2.3,11.6,6.6,15.9
		c4.4,4.4,10.1,6.6,15.9,6.6s11.5-2.2,15.9-6.6C47.1,29.6,47.1,15.3,38.3,6.6z M35.5,35.5c-5.2,5.2-12.7,6.6-19.1,4.4l2.8-2.8
		c1.5-1.5,2.5-3.5,2.5-5.8c0-4.4-3.6-8-8-8c-2.3,0-4.3,0.9-5.8,2.5l-0.1,0.2L5,28.5c-0.7-1.9-1-4-1-6.1c0-4.9,1.9-9.6,5.4-13
		C13,5.8,17.7,4,22.4,4c2.1,0,4.1,0.3,6.1,1l-2.6,2.6l-0.1,0.1L25.6,8c-1.5,1.4-2.4,3.4-2.4,5.6c0,4.4,3.6,8,8,8
		c2.2,0,4.2-0.9,5.7-2.3l2.9-2.9C42.1,22.8,40.7,30.3,35.5,35.5z"/>
</g>
<g id="Layer_2">
</g>
</svg>
