<?xml version="1.0" encoding="utf-8"?>
<!-- Generator: Adobe Illustrator 19.0.0, SVG Export Plug-In . SVG Version: 6.00 Build 0)  -->
<svg version="1.1" id="Layer_1" xmlns="http://www.w3.org/2000/svg" xmlns:xlink="http://www.w3.org/1999/xlink" x="0px" y="0px"
	 viewBox="0 0 30.6 20.5" style="enable-background:new 0 0 30.6 20.5;" xml:space="preserve">
<g id="XMLID_3310_">
	<path id="XMLID_614_" d="M26.2,0H4.4C2,0,0,2,0,4.5v16L1.8,18c1.4-2,8.2-0.7,13.6,0.4c6.3,1.2,11.7,2.3,14.1,0.3
		c0.7-0.6,1.1-1.5,1.1-2.6V4.5C30.6,2,28.6,0,26.2,0z M4.4,2h21.8c0.1,0,0.3,0,0.4,0l-8.5,5.5c-0.1,0-0.2,0-0.3-0.1l-0.1,0
		c-0.2,0-0.4-0.2-0.5-0.4l-0.1-0.1c-0.3-0.6-0.9-1-1.5-1s-1.3,0.4-1.5,1L14,7c-0.1,0.2-0.3,0.4-0.5,0.4l-0.1,0c-0.1,0-0.2,0-0.3,0.1
		L4.1,2C4.2,2,4.3,2,4.4,2z M17.5,11.3l0,0.1c0,0.3-0.1,0.5-0.3,0.7c-0.2,0.2-0.5,0.2-0.8,0.1l-0.1-0.1c-0.5-0.3-1.1-0.3-1.6,0
		l-0.1,0.1c-0.3,0.1-0.5,0.1-0.8-0.1c-0.2-0.2-0.3-0.4-0.3-0.7l0-0.1c0.1-0.6-0.1-1.1-0.5-1.5l-0.1-0.1c-0.2-0.2-0.3-0.5-0.2-0.7
		c0.1-0.3,0.3-0.5,0.6-0.5l0.1,0c0.6-0.1,1-0.4,1.3-0.9L15,7.3c0.1-0.3,0.4-0.4,0.6-0.4c0.3,0,0.5,0.2,0.6,0.4l0.1,0.1
		C16.5,8,17,8.3,17.6,8.4l0.1,0c0.3,0,0.5,0.2,0.6,0.5c0.1,0.3,0,0.5-0.2,0.7L18,9.8C17.6,10.2,17.4,10.7,17.5,11.3z M28.6,16.2
		c0,0.6-0.2,0.8-0.4,1c-1.6,1.3-7.4,0.2-12.4-0.8C12,15.7,8.3,15,5.4,15c-1.3,0-2.5,0.1-3.4,0.5v-11C2,4,2.1,3.6,2.3,3.3l9.5,5.9
		c0,0.4,0.2,0.9,0.5,1.2l0.1,0.1c0.2,0.2,0.3,0.4,0.2,0.6l0,0.1c-0.1,0.6,0.2,1.3,0.7,1.7c0.5,0.4,1.2,0.4,1.8,0.1l0.1-0.1
		c0.2-0.1,0.5-0.1,0.7,0l0.1,0.1c0.3,0.1,0.5,0.2,0.8,0.2c0.3,0,0.7-0.1,1-0.3c0.5-0.4,0.8-1,0.7-1.7l0-0.1c0-0.2,0-0.5,0.2-0.6
		l0.1-0.1c0.4-0.3,0.5-0.8,0.5-1.3l9-5.8c0.2,0.3,0.3,0.7,0.3,1.1V16.2z"/>
</g>
</svg>
