<?xml version="1.0" encoding="utf-8"?>
<!-- Generator: Adobe Illustrator 19.0.0, SVG Export Plug-In . SVG Version: 6.00 Build 0)  -->
<svg version="1.1" id="Layer_1" xmlns="http://www.w3.org/2000/svg" xmlns:xlink="http://www.w3.org/1999/xlink" x="0px" y="0px"
	 viewBox="-724 983.3 86.7 83.7" style="enable-background:new -724 983.3 86.7 83.7;" xml:space="preserve">
<style type="text/css">
	.fnf1{fill:none;}
	.fnf2{enable-background:new    ;}
</style>
<g id="Layer_1_1_">
	<path id="XMLID_25_" d="M-649.8,1067h-61.7c-6.9,0-12.5-5.6-12.5-12.5v-58.7c0-6.9,5.6-12.5,12.5-12.5h61.7
		c6.9,0,12.5,5.6,12.5,12.5v58.7C-637.3,1061.4-642.9,1067-649.8,1067z M-711.5,984.3c-6.3,0-11.5,5.2-11.5,11.5v58.7
		c0,6.3,5.2,11.5,11.5,11.5h61.7c6.3,0,11.5-5.2,11.5-11.5v-58.7c0-6.3-5.1-11.5-11.5-11.5H-711.5z"/>
</g>
<g id="Layer_2">
	<g id="XMLID_21_">
		<rect id="XMLID_107_" x="-700.5" y="1003.5" class="fnf1" width="39.8" height="43.3"/>
		<g class="fnf2">
			<path d="M-675,1011.6c-0.5,0.6-0.8,1.5-0.8,2.9v0.7h5v8h-5v22h-10.3v-22h-4v-7.7l4-0.3v-0.4c0-3.6,0.9-6.5,2.8-8.7
				c1.9-2.3,4.9-3.4,9.1-3.4c2.2,0,4.4,0.4,6.4,1.1l-1.8,7.6c-1.1-0.4-2.1-0.6-3-0.6C-673.7,1010.8-674.5,1011.1-675,1011.6z"/>
		</g>
	</g>
</g>
</svg>
