<?xml version="1.0" encoding="utf-8"?>
<!-- Generator: Adobe Illustrator 19.0.0, SVG Export Plug-In . SVG Version: 6.00 Build 0)  -->
<svg version="1.1" xmlns="http://www.w3.org/2000/svg" xmlns:xlink="http://www.w3.org/1999/xlink" x="0px" y="0px"
	 viewBox="0 0 85.7 82.7" style="enable-background:new 0 0 85.7 82.7;" xml:space="preserve">
<style type="text/css">
<!--	.st0{fill:#FFFFFF;}-->
</style>
<g id="Layer_1">
	<path id="XMLID_66_" d="M73.7,0H12C5.4,0,0,5.4,0,12v58.7c0,6.6,5.4,12,12,12h61.7c6.6,0,12-5.4,12-12V12
		C85.7,5.4,80.3,0,73.7,0z M53.3,27.6c-1.1-0.4-2.1-0.6-3-0.6c-1,0-1.8,0.3-2.3,0.8c-0.5,0.6-0.8,1.5-0.8,2.9v0.7h5v8h-5v22H36.8
		v-22h-4v-7.7l4-0.3v-0.4c0-3.6,0.9-6.5,2.8-8.7s4.9-3.4,9.1-3.4c2.2,0,4.4,0.4,6.4,1.1L53.3,27.6z"/>
</g>
<g id="Layer_2">
</g>
</svg>
