<?xml version="1.0" encoding="utf-8"?>
<!-- Generator: Adobe Illustrator 19.0.0, SVG Export Plug-In . SVG Version: 6.00 Build 0)  -->
<svg version="1.1" xmlns="http://www.w3.org/2000/svg" xmlns:xlink="http://www.w3.org/1999/xlink" x="0px" y="0px"
	 viewBox="0 0 85.7 82.7" style="enable-background:new 0 0 85.7 82.7;" xml:space="preserve">
<style type="text/css">
<!--	.st0{fill:#FFFFFF;}-->
</style>
<g id="Layer_1">
	<path id="XMLID_66_" d="M73.7,0H12C5.4,0,0,5.4,0,12v58.7c0,6.6,5.4,12,12,12h61.7c6.6,0,12-5.4,12-12V12
		C85.7,5.4,80.3,0,73.7,0z M59,57.4c-1.4,1.4-3.3,2.5-5.7,3.5c-2.4,0.9-4.9,1.3-7.5,1.3c-3.7,0-7.1-0.8-10.1-2.3s-5.3-3.8-7-6.8
		c-1.7-3-2.6-6.6-2.6-10.9c0-4.2,0.9-7.8,2.6-10.9c1.8-3.1,4.1-5.5,7.1-7.1c3-1.6,6.2-2.5,9.7-2.5c2.7,0,5.1,0.5,7.2,1.4
		c2.1,1,4,2.2,5.5,3.7l-5.4,6.6c-1.1-1-2.2-1.7-3.2-2.2c-1.1-0.5-2.3-0.7-3.8-0.7c-2.7,0-4.9,1-6.7,3c-1.7,2-2.6,4.8-2.6,8.3
		c0,3.7,0.8,6.5,2.5,8.5s4.2,2.9,7.7,2.9c1.3,0,2.3-0.2,3-0.7v-5.4h-5.8v-8.4H59V57.4z"/>
</g>
<g id="Layer_2">
</g>
</svg>
