<?xml version="1.0" encoding="utf-8"?>
<!-- Generator: Adobe Illustrator 19.0.0, SVG Export Plug-In . SVG Version: 6.00 Build 0)  -->
<svg version="1.1" id="Layer_1" xmlns="http://www.w3.org/2000/svg" xmlns:xlink="http://www.w3.org/1999/xlink" x="0px" y="0px"
	 viewBox="-724 983.3 86.7 83.7" style="enable-background:new -724 983.3 86.7 83.7;" xml:space="preserve">
<style type="text/css">
	.google_not_full1{fill:none;}
	.google_not_full2{enable-background:new    ;}
</style>
<g id="Layer_1_1_">
	<path id="XMLID_25_" class="google_not_full0" d="M-649.8,1067h-61.7c-6.9,0-12.5-5.6-12.5-12.5v-58.7c0-6.9,5.6-12.5,12.5-12.5h61.7
		c6.9,0,12.5,5.6,12.5,12.5v58.7C-637.3,1061.4-642.9,1067-649.8,1067z M-711.5,984.3c-6.3,0-11.5,5.2-11.5,11.5v58.7
		c0,6.3,5.2,11.5,11.5,11.5h61.7c6.3,0,11.5-5.2,11.5-11.5v-58.7c0-6.3-5.1-11.5-11.5-11.5H-711.5z"/>
</g>
<g id="Layer_2">
	<g id="XMLID_21_">
		<rect id="XMLID_107_" x="-700.5" y="1003.5" class="google_not_full1" width="39.8" height="43.3"/>
		<g class="google_not_full2">
			<path class="google_not_full0" d="M-687.7,1043.7c-3-1.5-5.3-3.8-7-6.8c-1.7-3-2.6-6.6-2.6-10.9c0-4.2,0.9-7.8,2.6-11c1.8-3.1,4.1-5.5,7.1-7.1
				c3-1.6,6.2-2.5,9.7-2.5c2.7,0,5.1,0.5,7.2,1.4c2.1,1,4,2.2,5.5,3.7l-5.4,6.6c-1.1-1-2.2-1.7-3.2-2.2c-1.1-0.5-2.3-0.7-3.8-0.7
				c-2.7,0-4.9,1-6.7,3c-1.7,2-2.6,4.8-2.6,8.3c0,3.7,0.8,6.5,2.5,8.5c1.7,1.9,4.2,2.9,7.7,2.9c1.3,0,2.3-0.2,3-0.7v-5.4h-5.8v-8.4
				h14.9v18.6c-1.4,1.4-3.3,2.5-5.7,3.5c-2.4,0.9-4.9,1.3-7.5,1.3C-681.4,1046-684.8,1045.2-687.7,1043.7z"/>
		</g>
	</g>
</g>
</svg>
