<?xml version="1.0" encoding="utf-8"?>
<!-- Generator: Adobe Illustrator 19.0.0, SVG Export Plug-In . SVG Version: 6.00 Build 0)  -->
<svg version="1.1" id="Layer_1" xmlns="http://www.w3.org/2000/svg" xmlns:xlink="http://www.w3.org/1999/xlink" x="0px" y="0px"
	 viewBox="0 0 142.1 142.1" style="enable-background:new 0 0 142.1 142.1;" xml:space="preserve">
<style type="text/css">
	.no_success_v_round0{opacity:0.75;
	}
</style>
<path id="XMLID_138_" class="no_success_v_round0" d="M71,142.1c-39.2,0-71-31.9-71-71C0,31.9,31.9,0,71,0s71,31.9,71,71
	C142.1,110.2,110.2,142.1,71,142.1z M71,1C32.4,1,1,32.4,1,71c0,38.6,31.4,70,70,70s70-31.4,70-70C141.1,32.4,109.7,1,71,1z"/>
<g id="XMLID_4327_">
	<g id="XMLID_223_">
		<path id="XMLID_227_" class="st1" d="M32.8,75c7.9,8,15.9,16,23.8,24c1.1,1.1,3.1,1.1,4.2,0c16-16,31.9-31.9,47.9-47.9
			c2.7-2.7-1.5-7-4.2-4.2c-16,16-31.9,31.9-47.9,47.9c1.4,0,2.8,0,4.2,0c-7.9-8-15.9-16-23.8-24C34.3,68,30,72.3,32.8,75L32.8,75z"
			/>
	</g>
</g>
</svg>
