<?xml version="1.0" encoding="utf-8"?>
<!-- Generator: Adobe Illustrator 19.0.0, SVG Export Plug-In . SVG Version: 6.00 Build 0)  -->
<svg version="1.1" id="Layer_1" xmlns="http://www.w3.org/2000/svg" xmlns:xlink="http://www.w3.org/1999/xlink" x="0px" y="0px"
	 viewBox="0 0 24.2 32.7" style="enable-background:new 0 0 24.2 32.7;" xml:space="preserve">
<g id="XMLID_3313_">
	<path id="XMLID_522_" class="password_icon0" d="M19.4,8.3h-0.6C18.5,3.6,15.6,0,12.1,0C8.7,0,5.8,3.6,5.4,8.3H4.8C2.2,8.3,0,10.4,0,13.1v19.6
		L1.7,31c3.1-3,8.2-1.6,12.8-0.4c3.5,1,6.6,1.8,8.4,0.4c0.9-0.7,1.4-1.8,1.4-3.4V13.1C24.2,10.4,22.1,8.3,19.4,8.3z M12.1,2
		c2.3,0,4.4,2.8,4.7,6.3H7.4C7.8,4.8,9.8,2,12.1,2z M22.2,27.7c0,0.9-0.2,1.5-0.6,1.8c-1,0.8-3.9,0-6.6-0.8c-4.2-1.2-9.2-2.5-13-0.4
		V13.1c0-1.5,1.3-2.8,2.8-2.8h14.6c1.6,0,2.8,1.3,2.8,2.8V27.7z"/>
	<g id="XMLID_3315_">
		<path id="XMLID_516_" class="password_icon0" d="M13.3,19.1l0.5,3c0.1,0.3-0.2,0.6-0.5,0.6h-2.4c-0.3,0-0.6-0.3-0.5-0.6l0.6-3
			c-0.5-0.3-0.9-1-0.9-1.7c0-1.1,0.9-2,2-2s2,0.9,2,2C14.2,18.1,13.8,18.7,13.3,19.1z"/>
	</g>
</g>
</svg>
