<?xml version="1.0" encoding="utf-8"?>
<!-- Generator: Adobe Illustrator 19.0.0, SVG Export Plug-In . SVG Version: 6.00 Build 0)  -->
<svg version="1.1" id="Layer_1" xmlns="http://www.w3.org/2000/svg" xmlns:xlink="http://www.w3.org/1999/xlink" x="0px" y="0px"
	 viewBox="0 0 141.1 141.1" style="enable-background:new 0 0 141.1 141.1;" xml:space="preserve">
<style type="text/css">
</style>
<path id="XMLID_67_" class="success_v_round0" d="M70.5,0C31.6,0,0,31.6,0,70.5c0,39,31.6,70.5,70.5,70.5s70.5-31.6,70.5-70.5
	C141.1,31.6,109.5,0,70.5,0z M109.6,53c-16,16-31.9,32-47.9,47.9c-1.7,1.7-4.7,1.7-6.4,0c-7.9-8-15.9-16-23.8-24
	c-4.1-4.1,2.3-10.5,6.4-6.4c6.9,6.9,13.8,13.8,20.7,20.8c14.9-14.9,29.8-29.8,44.7-44.7C107.3,42.5,113.7,48.9,109.6,53z"/>
</svg>
