<?xml version="1.0" encoding="utf-8"?>
<!-- Generator: Adobe Illustrator 19.0.0, SVG Export Plug-In . SVG Version: 6.00 Build 0)  -->
<svg version="1.1" id="Layer_1" xmlns="http://www.w3.org/2000/svg" xmlns:xlink="http://www.w3.org/1999/xlink" x="0px" y="0px"
	 viewBox="0 0 168.6 156.2" style="enable-background:new 0 0 168.6 156.2;" xml:space="preserve">
<g id="XMLID_329_">
	<path id="XMLID_340_" class="success_v_square" d="M143.6,0H25C11.2,0,0,11.2,0,25v106.2c0,13.8,11.2,25,25,25h118.6c13.8,0,25-11.2,25-25V25
		C168.6,11.2,157.4,0,143.6,0z M123,57.3l-47.9,47.9c-1.7,1.7-4.6,1.7-6.4,0c-8-8-15.9-16-23.8-24c-4.1-4.1,2.3-10.5,6.4-6.4
		c6.9,6.9,13.8,13.8,20.7,20.8c14.9-14.9,29.8-29.8,44.7-44.7C120.8,46.9,127.1,53.2,123,57.3z"/>
</g>
</svg>
