<?xml version="1.0" encoding="utf-8"?>
<!-- Generator: Adobe Illustrator 19.0.0, SVG Export Plug-In . SVG Version: 6.00 Build 0)  -->
<svg version="1.1" id="Layer_1" xmlns="http://www.w3.org/2000/svg" xmlns:xlink="http://www.w3.org/1999/xlink" x="0px" y="0px"
	 viewBox="0 0 28.4 32.5" style="enable-background:new 0 0 28.4 32.5;" xml:space="preserve">
<g id="XMLID_3309_">
	<path id="XMLID_390_" class="user_icon0" d="M25.5,32.5c-1.7,0-4-0.8-6.9-1.9c-5.8-2.1-13.1-4.8-16.9-0.4l-1.8,2v-2.7
		c0-7.8,6.4-14.2,14.2-14.2s14.2,6.4,14.2,14.2c0,1.1-0.4,2-1.1,2.5C26.8,32.4,26.2,32.5,25.5,32.5z M7.5,25.9
		c3.9,0,8.2,1.6,11.8,2.9c2.8,1,6,2.2,6.9,1.6c0.2-0.1,0.2-0.5,0.2-0.8c0-6.7-5.5-12.2-12.2-12.2c-5.9,0-10.9,4.3-12,9.9
		C3.8,26.3,5.6,25.9,7.5,25.9z"/>
	<path id="XMLID_335_" class="user_icon0" d="M14.2,17.3c-4.8,0-8.7-3.9-8.7-8.7S9.4,0,14.2,0s8.7,3.9,8.7,8.7S19,17.3,14.2,17.3z M14.2,2
		c-3.7,0-6.7,3-6.7,6.7s3,6.7,6.7,6.7s6.7-3,6.7-6.7S17.9,2,14.2,2z"/>
</g>
</svg>
