<?xml version="1.0" encoding="utf-8"?>
<!-- Generator: Adobe Illustrator 19.0.0, SVG Export Plug-In . SVG Version: 6.00 Build 0)  -->
<svg version="1.1" id="Layer_1" xmlns="http://www.w3.org/2000/svg" xmlns:xlink="http://www.w3.org/1999/xlink" x="0px" y="0px"
	 viewBox="0 0 80 80" style="enable-background:new 0 0 80 80;" xml:space="preserve">
<style type="text/css">
	.st0{fill:#FFFFFF;stroke:#000000;stroke-width:2;stroke-miterlimit:10;}
</style>
<circle id="XMLID_1788_" class="st0" cx="40" cy="40" r="35.6"/>
<g id="XMLID_1773_">
	<g id="XMLID_1781_">
		<g id="XMLID_213_">
			<path id="XMLID_217_" d="M54.5,37c-9.6,0-19.3,0-28.9,0c-3.9,0-3.9,6,0,6c9.6,0,19.3,0,28.9,0C58.3,43,58.3,37,54.5,37L54.5,37z"
				/>
		</g>
	</g>
	<g id="XMLID_1774_">
		<g id="XMLID_100_">
			<path id="XMLID_211_" d="M43,54.5c0-9.6,0-19.3,0-28.9c0-3.9-6-3.9-6,0c0,9.6,0,19.3,0,28.9C37,58.3,43,58.3,43,54.5L43,54.5z"/>
		</g>
	</g>
</g>
</svg>
