<?xml version="1.0" encoding="utf-8"?>
<!-- Generator: Adobe Illustrator 19.0.0, SVG Export Plug-In . SVG Version: 6.00 Build 0)  -->
<svg version="1.1" id="Layer_1" xmlns="http://www.w3.org/2000/svg" xmlns:xlink="http://www.w3.org/1999/xlink" x="0px" y="0px"
	 viewBox="0 0 80 80" style="enable-background:new 0 0 80 80;" xml:space="preserve">
<style type="text/css">
	.st0{fill:#FFFFFF;stroke:#000000;stroke-width:2;stroke-miterlimit:10;}
	.st1{stroke:#000000;stroke-miterlimit:10;}
</style>
<g id="XMLID_85_">
	<circle id="XMLID_1799_" class="st0" cx="40" cy="40" r="35.6"/>
	<g id="XMLID_1789_">
		<path id="XMLID_1796_" class="st1" d="M27.2,51c0,0-4.7-13.7,2.7-20.2c2.9-2.9,6.7-4.3,10.5-4.2c0.8,0,1.6,0.1,2.4,0.3
			c0.1-0.1,0.2-0.2,0.3-0.3c0.4-0.5,0.7-0.8,0.7-0.8l-0.1-0.1l0.1-0.1c0,0-0.3-0.3-0.7-0.8c-1-0.2-2-0.3-3-0.3
			c-4.2,0-8.4,1.6-11.5,4.8C22.6,35.3,22.1,44.6,27.2,51z M50.2,51.1c-3.4,3.4-8.2,4.8-12.7,4c-0.7-0.1-1.4-0.3-2.1-0.5
			c-0.2,0.2-0.4,0.4-0.5,0.5c-0.4,0.5-0.7,0.8-0.7,0.8l0.1,0.1L34.1,56c0,0,0.1,0.1,0.2,0.3l0,0c1.1,0.4,2.3,0.7,3.5,0.9
			c4.9,0.6,10-0.9,13.7-4.6c5.9-5.9,6.3-15.2,1.3-21.6C52.8,30.9,57.7,44.8,50.2,51.1z"/>
		<g id="XMLID_1793_">
			<path id="XMLID_1795_" d="M40.3,21.1l0.1-0.1c0,0,0.3,0.3,0.8,0.7c0.4,0.4,1,1,1.6,1.6c0.6,0.6,1.2,1.2,1.6,1.6
				c0.4,0.5,0.7,0.8,0.7,0.8L45,25.8c0,0-0.7,0.1-1.4-0.1l0,0c-0.4-0.1-0.7-0.2-1.1-0.4c-0.4-0.2-0.7-0.4-1-0.7
				c-0.3-0.3-0.5-0.6-0.7-1c-0.1-0.2-0.2-0.4-0.2-0.6c-0.1-0.2-0.1-0.4-0.2-0.6C40.2,21.8,40.3,21.1,40.3,21.1z"/>
			<path id="XMLID_1794_" d="M41.5,26.9c0.1-0.1,0.2-0.2,0.3-0.3c0.2-0.2,0.5-0.3,0.7-0.5c0.2-0.1,0.4-0.2,0.6-0.2
				c0.2-0.1,0.4-0.1,0.5-0.2l0,0c0.7-0.2,1.4-0.1,1.4-0.1l0.1,0.1c0,0-0.3,0.3-0.7,0.8c-0.1,0.1-0.2,0.2-0.3,0.3
				c-0.4,0.4-0.9,0.9-1.3,1.4c-0.6,0.6-1.2,1.2-1.6,1.6c-0.5,0.4-0.8,0.7-0.8,0.7l-0.1-0.1c0,0-0.1-0.7,0.1-1.4
				c0.1-0.4,0.2-0.8,0.4-1.1C41,27.5,41.2,27.2,41.5,26.9z"/>
		</g>
		<g id="XMLID_1790_">
			<path id="XMLID_1792_" d="M32.8,56l0.1-0.1c0,0,0.7-0.1,1.4,0.1l0,0c0.4,0.1,0.7,0.2,1.1,0.4c0.4,0.2,0.7,0.4,1,0.7l0.1,0.1
				c0.3,0.3,0.5,0.6,0.7,0.9c0.1,0.2,0.2,0.4,0.2,0.6c0.1,0.2,0.1,0.4,0.2,0.6c0.2,0.7,0.1,1.4,0.1,1.4l-0.1,0.1
				c0,0-0.3-0.3-0.8-0.7c-0.4-0.4-1-1-1.6-1.6c-0.6-0.6-1.2-1.2-1.6-1.6c-0.2-0.2-0.3-0.4-0.5-0.5c0,0,0,0,0,0
				C32.9,56.1,32.8,56,32.8,56z"/>
			<path id="XMLID_1791_" d="M35.1,53.4c0.6-0.6,1.2-1.2,1.6-1.6c0.5-0.4,0.8-0.7,0.8-0.7l0.1,0.1c0,0,0.1,0.7-0.1,1.4
				c-0.1,0.4-0.2,0.7-0.4,1.1c-0.2,0.4-0.4,0.7-0.7,1c-0.1,0.1-0.2,0.2-0.3,0.3c-0.2,0.2-0.5,0.3-0.7,0.5c-0.2,0.1-0.4,0.2-0.6,0.2
				c-0.2,0.1-0.4,0.1-0.5,0.2l0,0c-0.7,0.2-1.4,0.1-1.4,0.1l-0.1-0.1c0,0,0.3-0.3,0.7-0.8c0.2-0.2,0.3-0.4,0.5-0.5
				C34.3,54.2,34.7,53.8,35.1,53.4z"/>
		</g>
	</g>
</g>
</svg>
