<?xml version="1.0" encoding="utf-8"?>
<!-- Generator: Adobe Illustrator 19.0.0, SVG Export Plug-In . SVG Version: 6.00 Build 0)  -->
<svg version="1.1" xmlns="http://www.w3.org/2000/svg" xmlns:xlink="http://www.w3.org/1999/xlink" x="0px" y="0px"
	 viewBox="0 0 99 99.2" style="enable-background:new 0 0 99 99.2;" xml:space="preserve">
<style type="text/css">
<!--	.alph_icon0{opacity:0.56;fill:#FFFFFF;}-->
</style>
<g id="Layer_1">
</g>
<g id="Layer_2">
	<g id="XMLID_4631_">
		<path id="XMLID_25_" class="alph_icon0" d="M-0.6,31.7c0,0,0.3-0.7,0.9-2c0.6-1.3,1.6-3.2,3-5.4c1.5-2.2,3.4-4.9,5.9-7.7
			c2.5-2.8,5.7-5.6,9.5-8.2c3.9-2.6,8.4-4.8,13.6-6.3C37.5,0.6,43.1-0.2,49,0c5.8,0.2,11.9,1.4,17.6,3.8c5.7,2.3,11.1,5.7,15.7,10
			c2.3,2.1,4.4,4.4,6.3,7c0.5,0.7,0.9,1.3,1.3,1.9c0.4,0.7,0.8,1.3,1.2,2c0.8,1.3,1.5,2.7,2.2,4.1c2.7,5.5,4.4,11.4,5.2,17.1
			c0.2,1.4,0.4,2.9,0.5,4.3c0,0.7,0.1,1.4,0.1,2.1c0,0.7,0,1.4,0,2.2c0,2.8-0.3,5.6-0.9,8.2c-1.1,5.3-3,10-5.2,14
			c-2.2,4.1-4.8,7.4-7.3,10.2c-2.5,2.8-4.9,5-6.9,6.7c-2,1.7-3.8,2.9-4.9,3.8c-1.2,0.8-1.8,1.2-1.8,1.2s0.6-0.5,1.7-1.3
			c1.1-0.9,2.7-2.2,4.7-4c1.9-1.8,4.2-4.1,6.5-7c2.3-2.9,4.6-6.3,6.7-10.3c2-4,3.7-8.6,4.6-13.6c0.4-2.5,0.7-5.1,0.6-7.8
			c0-0.7,0-1.3-0.1-2c-0.1-0.7-0.1-1.4-0.2-2.1c-0.2-1.4-0.4-2.7-0.6-4.1C95,40.8,93.3,35.2,90.6,30c-0.7-1.3-1.4-2.6-2.1-3.8
			c-0.4-0.6-0.8-1.2-1.2-1.9c-0.4-0.6-0.9-1.3-1.3-1.8c-1.7-2.3-3.7-4.5-5.9-6.5c-4.4-4-9.4-7.2-14.8-9.5c-5.4-2.3-11-3.5-16.6-3.8
			c-0.7,0-1.4-0.1-2.1-0.1c-0.7,0-1.4,0-2,0c-0.7,0-1.3,0-2,0.1l-1,0.1c-0.3,0-0.7,0.1-1,0.1C38,3.2,35.4,3.7,33,4.3
			C28,5.6,23.6,7.6,19.7,9.9c-1.9,1.1-3.7,2.4-5.3,3.7c-1.6,1.3-3.1,2.6-4.4,3.8c-2.6,2.6-4.7,5.1-6.2,7.2c-1.5,2.1-2.7,3.9-3.4,5.2
			C-0.2,31-0.6,31.7-0.6,31.7z"/>
		<path id="XMLID_4655_" class="alph_icon0" d="M36.9,70.5c-1,0-2.2,0.1-3.3-0.1l0,0c-7.5-0.6-10.5-5.2-11.3-8.6
			c-2.1-8.5,3.3-15.2,7.8-19.8c2.2-2.5,7.1-5.8,12.9-6.7c4.6-0.7,6.9,0.6,10,2.8l0,0c1.6,1.7,2.8,4,3.5,5.7c1.7-3.3,3.7-5.2,4.4-7.3
			l9.1,0c-0.6,1.7-5.9,9.4-10.7,16.9c0.7,2.9,1.3,5.3,2.5,7.8c1.2,2.7,1.2,5.5,10.1,5.2l0,0c-5.7,6.3-12.8,4.2-15.9-0.7
			c-0.7-1.2-1.4-3.7-1.9-5C49.3,66.5,43.7,70.5,36.9,70.5z M33.9,66.2c5.8,1,12.5-7.4,17.2-14.2c-0.8-3.5-1.1-6.8-3-10
			c-0.8-0.9-1.8-2.7-4-2.8c-3.9-0.1-7,3.6-7.7,4.4l0,0c-3.6,4.3-7.1,11.9-6.6,16.4C29.9,62,30.6,65.1,33.9,66.2z"/>
	</g>
</g>
</svg>
