<svg version="1.1" id="Layer_1" xmlns="http://www.w3.org/2000/svg" xmlns:xlink="http://www.w3.org/1999/xlink" x="0px" y="0px"
	 viewBox="0 0 60.4 46.9" style="enable-background:new 0 0 60.4 46.9;" xml:space="preserve">
<g class="arrow_1">
	<path d="M43,46.9c-0.6,0-1.2-0.2-1.7-0.5c-1.4-0.9-1.7-2.8-0.8-4.2l13.2-19L40.9,4.7
		c-0.9-1.4-0.6-3.2,0.8-4.2c1.4-0.9,3.2-0.6,4.2,0.8l14,20.2c0.7,1,0.7,2.4,0,3.4L45.5,45.6C44.9,46.5,43.9,46.9,43,46.9z"/>
</g>
<g class="arrow_2">
	<path d="M23,46.9c-0.6,0-1.2-0.2-1.7-0.5c-1.4-0.9-1.7-2.8-0.8-4.2l13.2-19L20.9,4.7
		c-0.9-1.4-0.6-3.2,0.8-4.2c1.4-0.9,3.2-0.6,4.2,0.8l14,20.2c0.7,1,0.7,2.4,0,3.4L25.5,45.6C24.9,46.5,23.9,46.9,23,46.9z"/>
</g>
<g class="arrow_3">
	<path d="M3,46.9c-0.6,0-1.2-0.2-1.7-0.5c-1.4-0.9-1.7-2.8-0.8-4.2l13.2-19L0.9,4.7
		c-0.9-1.4-0.6-3.2,0.8-4.2C3-0.4,4.8-0.1,5.8,1.3l14,20.2c0.7,1,0.7,2.4,0,3.4L5.5,45.6C4.9,46.5,3.9,46.9,3,46.9z"/>
</g>
</svg>
