<?xml version="1.0"?>
<svg xmlns="http://www.w3.org/2000/svg" viewBox="0 0 64 64" width="512" height="512"><g id="Signature"><polygon points="46.366 18.926 34.773 39 39.392 39 49.834 20.926 46.366 18.926"/><path d="M4,60H46V47.272A6.99,6.99,0,0,0,44.111,47H37.087l-2.021,3.5a1,1,0,0,1-.23.272l-6.6,5.431a1,1,0,0,1-1.621-.936l1.4-8.431a.967.967,0,0,1,.121-.337l0-.008a4.864,4.864,0,0,1-.615.044,4.951,4.951,0,0,1-2.485-.67,3,3,0,0,1-1.105-4.1l6.18-10.755A8.021,8.021,0,0,1,37.051,27h2.34l6.7-11.6A.989.989,0,0,1,46,15V4H16V15a2,2,0,0,1-2,2H4ZM21,8H41a1,1,0,0,1,0,2H21a1,1,0,0,1,0-2Zm0,6H41a1,1,0,0,1,0,2H21a1,1,0,0,1,0-2ZM11,20H39a1,1,0,0,1,0,2H11a1,1,0,0,1,0-2Zm0,6H29a1,1,0,0,1,0,2H11a1,1,0,0,1,0-2Zm0,6H25a1,1,0,0,1,0,2H11a1,1,0,0,1,0-2Zm0,6H23a1,1,0,0,1,0,2H11a1,1,0,0,1,0-2Zm0,6H21a1,1,0,0,1,0,2H11a1,1,0,0,1,0-2Zm0,11H23a1,1,0,0,1,0,2H11a1,1,0,0,1,0-2Z"/><path d="M41.7,39H43a.957.957,0,0,0,.694-.288.978.978,0,0,0,.3-.8A1.083,1.083,0,0,0,42.888,37h-.031Z"/><polygon points="14 5.476 4.443 15 14 15 14 5.476"/><path d="M32.463,39l5.774-10H37.051a6.014,6.014,0,0,0-5.2,3.01L25.667,42.768a1,1,0,0,0,.37,1.364,2.952,2.952,0,0,0,2.243.29A3.93,3.93,0,0,1,28,43.04a3.862,3.862,0,0,1,1.155-2.762A4.3,4.3,0,0,1,32.184,39Z"/><path d="M49.366,13.725l-2,3.464,3.464,2,2-3.464a2,2,0,1,0-3.464-2Z"/><path d="M59.811,35a6.981,6.981,0,0,1-5.378-2.519L53.03,30.8A4.985,4.985,0,0,0,49.189,29H47.476l-3.567,6.177a3.013,3.013,0,0,1,2.079,2.562,2.959,2.959,0,0,1-.881,2.387A2.924,2.924,0,0,1,43,41H32.184a2.286,2.286,0,0,0-1.608.685A1.879,1.879,0,0,0,30,43.02a2.013,2.013,0,0,0,.458,1.251,2.1,2.1,0,0,0,.226.221A1.989,1.989,0,0,0,32,45H44.111a9.057,9.057,0,0,1,4.026.95l.621.311A7.031,7.031,0,0,0,51.889,47H61V35Z"/><path d="M30.37,46.63l-.413.714-.934,5.62,4.4-3.621L34.777,47H32A3.935,3.935,0,0,1,30.37,46.63Z"/></g></svg>
