<?xml version='1.0' encoding='iso-8859-1'?>
<svg version="1.1" xmlns="http://www.w3.org/2000/svg" viewBox="0 0 231.334 231.334" xmlns:xlink="http://www.w3.org/1999/xlink" enable-background="new 0 0 231.334 231.334">
  <g>
    <path d="m220.793,80.667h-113.459v17h-16v-17.048c-25,2.946-46.546,20.521-54.644,44.155-3.595-2.053-7.67-3.232-12.106-3.232-13.6,0-24.584,11.025-24.584,24.625 0,13.6 11.046,24.625 24.646,24.625 4.436,0 8.605-1.18 12.2-3.232 8.89,25.947 33.481,44.607 62.441,44.607 36.292,0 65.734-29.294 65.991-65.525l57.705-14.098c5.346-1.295 8.351-4.377 8.351-11.877v-31c0-5.5-5.041-9-10.541-9z"/>
    <path d="m99.334,52.167c4.418,0 8-3.582 8-8v-17c0-4.418-3.582-8-8-8s-8,3.582-8,8v17c0,4.418 3.582,8 8,8z"/>
    <path d="m64.644,61.685c1.563,1.562 3.609,2.343 5.657,2.343 2.048,0 4.095-0.781 5.657-2.343 3.124-3.125 3.124-8.19 0-11.315l-12.021-12.021c-3.125-3.123-8.189-3.123-11.314,0-3.124,3.125-3.124,8.19 0,11.315l12.021,12.021z"/>
    <path d="m128.284,64.028c2.048,0 4.096-0.781 5.657-2.344l12.02-12.021c3.124-3.124 3.124-8.19-0.001-11.314-3.125-3.125-8.191-3.124-11.314,0.001l-12.019,12.021c-3.124,3.124-3.124,8.189 0.001,11.313 1.562,1.564 3.608,2.344 5.656,2.344z"/>
  </g>
</svg>
